<svg xmlns="http://www.w3.org/2000/svg" width="233" height="232" viewBox="0 0 233 232"><style>.a{}.b{fill:#D8A48E;fill-opacity:0.33;}</style><g fill="none"><path d="M0 0L231 0 231 230 155.5 230 155 228.5 158 219.5 160.5 217 164 216.5 162.5 214 165.5 216 163 212.5 164 211.5 168.5 206 170 206.5 169 204.5 174 202.5 172 202 172.5 200 174.5 201 188 178.5 185.5 180 178.5 182 170 189 171.5 193 173 192.5C166.9 198.1 162.3 204.6 159 212 154.7 211.9 151.7 213.4 150 216.5L147.5 221 145.5 217 127.5 222 110.5 223 106.5 220 104 222.5 103 228 100.5 229 99.5 215C97.8 218.3 97.3 222.8 98 228.5L96.5 230 0 230 0 0ZM109 4L101 7 98 6 94 9 98 10 101 11 107 11C106.3 9 107.3 8.3 110 9L110 7 114 7 116 7C118 9 122 9.3 128 8L129 9 135 9 126 5 124 6 121 4 118 6 109 4ZM89 11L85 13 89 14C89.7 12 92.3 11.7 97 13L98 11 95 12C91.7 12.7 89.7 12.3 89 11ZM114 14L103 17 99 20 93 21 77 32 68 47 64 67 65 71C67.7 67.7 72.7 66.7 80 68L81 71 81 76 78 82 75 81 75 83 75 85 70 91 72 91 73 91 73 94 66 105 69 119 71 122 74 125 73 126 77 140 77 144 79 145 79 142 81 142 78 136 80 135 79 133C77.7 125.7 79.3 121.3 84 120L86 121 91 118 106 115C112 114.3 116.3 115 119 117L120 122 121 123 118 122C116 121.3 115.3 122 116 124L113 127 104 129 89 138 85 138 83 145 83 150 87 156 86 158C87.3 160 90 160.7 94 160L96 160 120 149 126 143C127.3 143.7 127.7 143 127 141L127 139 128 137 127 136 127 135 126 129 130 126 133 120 140 115C141.3 114.3 141.7 115 141 117 143 117.7 143.7 117.3 143 116L142 115 145 112 143 111 142 103 144 103 142 102 141 100 143 99 145 96 145 93 149 90 152 91 157 96 158 95 156 94 158 93 160 86 165 82 167 78 169 78 169 75 172 74 169 72C169.7 70 169 69.3 167 70L167 67 165 67 164 71 162 69 161 73 159 74 156 69 156 67C156.7 64.3 156.3 63.3 155 64L152 61 151 61 148 59 141 64 138 68 133 71 129 71C124.3 75 118.7 78 112 80 108.7 80.7 106.3 80.3 105 79L110 76 114 77 115 74 120 73C120.7 71 119.7 70.3 117 71L117 69 114 66C111.3 65.3 110.7 67 112 71L102 77 100 76 97 77 95 76 90 64 100 56 111 54 119 54 120 53C124.7 53.7 128.7 55.3 132 58L136 58 136 56C135.3 53.3 136.3 52.3 139 53L141 53 143 54 143 52 147 51 151 45 152 48C151.3 44.7 152 42.7 154 42 153.3 39.3 154 38.3 156 39L155 38 157 38 159 37C159.7 32.3 159 29 157 27 147 17.7 132.7 13.3 114 14ZM113 59L108 62 111 63 113 63 115 62C117 62.7 117.7 62 117 60L113 59ZM183 77L181 78 178 82 182 80C187.3 78.7 190.7 79.7 192 83L192 82C190.7 78 187.7 76.3 183 77ZM194 86L190 93 190 101C187.3 101.7 186.3 103.7 187 107 184.3 107.7 182.7 107.3 182 106L185 105 188 98 187 92C185.7 88.7 184 88.7 182 92L183 96 184 99 183 101 178 103 175 106 174 110 175 114 179 116 186 114C190 109.3 192.7 103.7 194 97L194 86ZM163 108L160 111 161 122 162 123 161 146 161 148 158 155 160 159C159.3 160.3 160.3 160.7 163 160L164 158C165.3 153.3 165 150.7 163 150L164 146 164 126 165 125C166.3 121 166 118.7 164 118L165 113 164 110C164.7 108 164.3 107.3 163 108ZM187 157L165 171C163 170.3 162.3 171.3 163 174L168 173 187 159 187 157ZM103 197L101 201C104.3 201.7 106.3 201 107 199L103 197ZM144 197L144 200 148 201 149 198 144 197Z" class="a"/><path d="M84.5 95C87.2 97 90.8 98 95.5 98L97.5 98 100.5 97 102 100.5 101 103C99.3 104.8 96.1 105.5 91.5 105L90 106.5 86.5 113 82.5 114 80 113 80 109 78.5 109 74 102.5 74 99.5 75.5 100 82 98C81.3 96.2 81.8 95.5 83.5 96L84.5 95Z" class="a"/><path d="M105.5 136L105 137.5 105.5 139 108.5 138 103.5 144 90.5 151 88 151 87 144 101.5 137 103.5 137 105.5 136ZM101 140L100 142C98 141.3 96.7 142 96 144L94 143 93 146 96 146 102 143 101 140Z" class="a"/><path d="M108.5 4L117.5 6 120.5 4 123.5 6 125.5 5 135 8.5 128.5 9 127.5 8C122 9.1 118 8.8 115.5 7L113.5 7 110 7 110 9C107.2 8.3 106 9 106.5 11L100.5 11 99.5 10 96.5 13C91.7 11.9 88.7 12.5 87.5 15L87.5 13 85 12.5 88.5 11C89.4 12.5 91.4 12.8 94.5 12L98 10.5 94 8.5 97.5 6 100.5 7 108.5 4Z" class="b"/><path d="M113.5 14C132.6 13.5 147.1 17.7 157 26.5 158.9 29.1 159.6 32.6 159 37L154 39C154.5 41.3 153.9 42.8 152 43.5L152 48 154 48.5 152.5 49 150.5 45 147 51 143 52 142.5 54 140.5 53 138.5 53C136 52.2 135.2 53 136 55.5L135.5 58 131.5 58C128.8 55.1 124.8 53.4 119.5 53L118.5 54 110.5 54 99.5 56 90 63.5 94.5 76 96.5 77 99.5 76 101.5 77 112 70.5C110.7 66.9 111.2 65.4 113.5 66L117 68.5 117 71C119.7 70.1 120.7 70.8 120 73L115 74 113.5 77 109.5 76 105 78.5C106.2 80 108.4 80.5 111.5 80 118.3 78.1 124 75.1 128.5 71L132.5 71 138 68 140.5 64 147.5 59 150.5 61 152 60.5 154.5 64C156.2 63.5 156.7 64.3 156 66.5L156 68.5 158.5 74 161 73 161.5 69 164 70.5 165 67 167 67 167 70C168.8 69.3 169.5 69.8 169 71.5L178 76.5 176.5 76 171.5 74 169 75 168.5 78 167 77.5 168 79.5 166 79.5 164.5 82 160 85.5 158 93 156 93.5 158 94.5 155 96.5 156 95.5 151.5 91 148.5 90 145 92.5 145 95.5 143 99 141 99.5 142 102 144 102.5 142 103 143 111 145 111.5 142 114.5 143 115.5C143.5 117.2 142.8 117.7 141 117 141.7 115.2 141.2 114.5 139.5 115L133 119.5 129.5 126 126 128.5 127 134.5 126.5 136 128 136.5 127 138.5 127 140.5C127.7 142.7 127.2 143.5 125.5 143L119.5 149 95.5 160 93.5 160 90.5 160 84 155.5 83 152.5 85 153.5 85.5 155 86 152.5C83.2 151.7 82.2 149 83 144.5L85 138 88.5 138 103.5 129 112.5 127 116 123.5C115.5 122 116 121.5 117.5 122L120.5 123 120 121.5 119 117C116.2 115 111.7 114.3 105.5 115L90.5 118 85.5 121 83.5 120C79.2 121.3 77.7 125.5 79 132.5L80 135 78 135.5 81 141.5 79 142 78.5 145 77 143.5 73.5 127 72 127.5 74 124.5 69 118.5 66 104.5 73 93.5 73 90.5 71.5 91 70 90.5 75 84.5 75 82.5 74.5 81 78 82 81 75.5 81 70.5 80 68C72.7 66.6 67.6 67.6 64.5 71L64 66.5 68 46.5 76 32.5 73 31.5 75.5 31 77.5 32 92.5 21 98.5 20 102.5 17 113.5 14ZM85 95L84 96C82 95.3 81.3 96 82 98L76 100 74 100 74 103 79 109 80 109 80 113 83 114 87 113 90 107 92 105C96 105.7 99 105 101 103L102 101 101 97 98 98 96 98C91.3 98 87.7 97 85 95ZM102 137L87 144 88 151 91 151 104 144 109 139 107 138 105 139C105.7 137 105.3 136.3 104 137L102 137Z" class="b"/><path d="M112.5 59L117 60C117.9 62 117 62.7 114.5 62L112.5 63 110.5 63 108 61.5 112.5 59Z" class="b"/><path d="M182.5 77C187.8 76.4 190.9 77.9 192 81.5L191.5 83C190.4 79.9 187 78.9 181.5 80L177.5 82 180.5 78 182.5 77Z" class="b"/><path d="M193.5 86L194 96.5C192.4 103.6 189.6 109.4 185.5 114L178.5 116 175 113.5 174 109.5 175 105.5 177.5 103 183 101 184 98.5 183 95.5 182 91.5C183.7 88.2 185.3 88.2 187 91.5L188 97.5 184.5 105 182 105.5C182.8 107.2 184.5 107.7 187 107 186.6 103.9 187.6 101.8 190 100.5L190 92.5 193.5 86Z" class="b"/><path d="M162.5 108C164 107.5 164.5 108 164 109.5L165 112.5 164 117.5C165.7 118.5 166 120.8 165 124.5L164 125.5 164 145.5 163 149.5C164.9 150.7 165.2 153.4 164 157.5L163 160C160.5 161 159.5 160.5 160 158.5L158 154.5 161 147.5 161 145.5 162 122.5 161 121.5 160 110.5 162.5 108Z" class="b"/><path d="M100.5 140L102 142.5 95.5 146 94.5 145 92 146.5 93.5 143 95.5 144C96.2 142.2 97.7 141.5 100 142L100.5 140Z" class="b"/><path d="M186.5 157L187 158.5 167.5 173 163 174C162 171.5 162.5 170.5 164.5 171L186.5 157Z" class="b"/><path d="M187.5 178L188 179.5 174.5 201 172.5 200 172 202 174 202.5 170 203.5 173 204.5 170 205.5 169.5 207C168.7 205.5 167.9 205.7 167 207.5L170 208 167.5 214 165 213 165.5 211 168 212.5 165.5 209 163 212.5 165.5 216 160.5 217 158 219.5 155 230 97 229.5 99.5 215 100.5 229 103 228 104 222.5 106.5 220C108 222.9 111.3 223.9 116.5 223L117.5 222 127.5 222 145.5 217 147.5 221 153.5 213 159 212C162.1 205.1 166.4 198.9 172 193.5L170 189 178.5 182 185.5 180 187.5 178Z" class="b"/><polygon points="102.5 197 107 198.5 104.5 201 100.5 202 101 200.5" class="b"/><polygon points="143.5 197 149 198 147.5 201 144 199.5" class="b"/></g></svg>