<?xml version="1.0" encoding="UTF-8"?>
<svg width="16px" height="16px" viewBox="0 0 16 16" version="1.1" xmlns="http://www.w3.org/2000/svg" xmlns:xlink="http://www.w3.org/1999/xlink">
    <title>favicon</title>
    <g id="favicon" stroke="none" stroke-width="1" fill="none" fill-rule="evenodd">
        <rect id="Rectangle" fill="#FFFFFF" x="0" y="0" width="16" height="16" rx="1"></rect>
        <path d="M7.96521739,7.4493968 C9.98225735,7.4493968 11.6173913,9.08453075 11.6173913,11.1015707 C11.6173913,13.1186107 9.98225735,14.7537446 7.96521739,14.7537446 C5.94817744,14.7537446 4.31304348,13.1186107 4.31304348,11.1015707 C4.31304348,9.08453075 5.94817744,7.4493968 7.96521739,7.4493968 Z M7.96521739,8.84070114 C6.71657361,8.84070114 5.70434783,9.85292693 5.70434783,11.1015707 C5.70434783,12.3502145 6.71657361,13.3624403 7.96521739,13.3624403 C9.21386117,13.3624403 10.226087,12.3502145 10.226087,11.1015707 C10.226087,9.85292693 9.21386117,8.84070114 7.96521739,8.84070114 Z" id="Oval-Copy-5" fill="#000000" fill-rule="nonzero"></path>
        <polygon id="Line-Copy-7" fill="#000000" fill-rule="nonzero" points="3.37391304 7.4493968 3.37391304 14.7537446 1.9826087 14.7537446 1.9826087 7.4493968"></polygon>
        <polygon id="Line-Copy-8" fill="#000000" fill-rule="nonzero" points="13.9478261 7.27548375 13.9478261 14.5798316 12.5565217 14.5798316 12.5565217 7.27548375"></polygon>
        <polygon id="Path-Copy-2" fill="#000000" fill-rule="nonzero" points="0.469807838 5.82888891 7.98040848 1.20024333 15.4910091 5.82888891 14.7610596 7.01333032 7.98038261 2.83453913 1.19975738 7.01333032"></polygon>
    </g>
</svg>