<?xml version="1.0" encoding="UTF-8"?>
<svg width="460px" height="414px" viewBox="0 0 460 414" version="1.1" xmlns="http://www.w3.org/2000/svg" xmlns:xlink="http://www.w3.org/1999/xlink">
    <title>logo</title>
    <g id="logo" stroke="none" stroke-width="1" fill="none" fill-rule="evenodd">
        <g id="Group-2" transform="translate(14.000000, 11.000000)" fill="#FFFFFF" fill-rule="nonzero">
            <path d="M216,180.170158 C273.989899,180.170158 321,227.180259 321,285.170158 C321,343.160057 273.989899,390.170158 216,390.170158 C158.010101,390.170158 111,343.160057 111,285.170158 C111,227.180259 158.010101,180.170158 216,180.170158 Z M216,220.170158 C180.101491,220.170158 151,249.271649 151,285.170158 C151,321.068667 180.101491,350.170158 216,350.170158 C251.898509,350.170158 281,321.068667 281,285.170158 C281,249.271649 251.898509,220.170158 216,220.170158 Z" id="Oval-Copy-5"></path>
            <polygon id="Line-Copy-7" points="84 180.170158 84 390.170158 44 390.170158 44 180.170158"></polygon>
            <polygon id="Line-Copy-8" points="388 175.170158 388 385.170158 348 385.170158 348 175.170158"></polygon>
            <polygon id="Path-Copy-2" points="0.50697533 133.580556 216.436744 0.506995856 432.366512 133.580556 411.380463 167.633247 216.436 47.493 21.4930247 167.633247"></polygon>
        </g>
    </g>
</svg>