<?xml version="1.0" encoding="UTF-8"?>
<svg width="1490px" height="1054px" viewBox="0 0 1490 1054" version="1.1" xmlns="http://www.w3.org/2000/svg" xmlns:xlink="http://www.w3.org/1999/xlink">
    <title>background</title>
    <g id="background" stroke="none" stroke-width="1" fill="none" fill-rule="evenodd">
        <path d="M746.271485,535.679037 L746.271485,1443.97059 C707.176395,1444.2828 667.945583,1442.11147 628.799597,1437.3558 L628.799597,1437.3558 L746.271485,535.679037 Z M748.235567,533.925865 L983.818658,1413.13483 C946.239654,1423.47066 907.693133,1431.49541 868.348017,1437.00257 L868.348017,1437.00257 L748.235567,533.925865 Z M744.392961,535.322458 L508.80871,1414.531 C471.096302,1404.69266 433.701721,1392.36908 396.8742,1377.46578 L396.8742,1377.46578 L744.392961,535.322458 Z M750.040675,533.295521 L1204.18719,1319.89892 C1170.48594,1339.71693 1135.42539,1357.45162 1099.14613,1372.90624 L1099.14613,1372.90624 L750.040675,533.295521 Z M742.926064,535.217676 L288.77961,1321.82126 C254.766059,1302.5443 221.876925,1281.04843 190.353293,1257.35693 L190.353293,1257.35693 L742.926064,535.217676 Z M750.864901,532.077553 L1394.49105,1175.70337 C1367.11473,1203.44386 1337.74467,1229.66673 1306.42432,1254.10861 L1306.42432,1254.10861 L750.864901,532.077553 Z M741.47729,533.9695 L97.8504978,1177.59471 C70.1096647,1150.21831 43.8870225,1120.84841 19.4449558,1089.52799 L19.4449558,1089.52799 L741.47729,533.9695 Z M752.11308,530.628782 L1538.71771,984.774527 C1519.44072,1018.78806 1497.94481,1051.67711 1474.25328,1083.20075 L1474.25328,1083.20075 L752.11308,530.628782 Z M739.138322,528.777541 L-49.7298746,984.269959 C-69.0772207,950.199431 -86.3182476,914.78217 -101.247675,878.168909 L-101.247675,878.168909 L739.138322,528.777541 Z M753.320981,527.251328 L1632.53096,762.835151 C1622.69248,800.547378 1610.36888,837.942022 1595.46592,874.769608 L1595.46592,874.769608 L753.320981,527.251328 Z M738.679889,526.915132 L-139.670938,762.268701 C-149.403479,724.609567 -156.801719,686.027101 -161.704922,646.654829 L-161.704922,646.654829 L738.679889,526.915132 Z M1661.97059,525.372807 C1662.2828,564.467897 1660.11147,603.698587 1655.35578,642.844695 L1655.35578,642.844695 L753.677559,525.372807 Z M-163.573735,406.784317 L738.919846,524.393454 L-172,524.430192 C-171.724891,485.251618 -168.946691,445.962891 -163.573735,406.784317 L-163.573735,406.784317 Z M1395.47383,-118.686179 C1422.732,-90.9389201 1448.43033,-61.2244698 1472.36255,-29.578864 L1472.36255,-29.578864 L763.449,515.867 L1539.00917,68.0989622 C1558.34385,100.978177 1575.69558,135.151139 1590.88168,170.487455 L1592.01657,173.139858 L758.403,519.75 L752.476616,524.31064 L756.064,520.722 L752.404543,522.244707 L757.463,519.323 Z M1632.24511,288.467333 C1642.58095,326.046278 1650.60571,364.592678 1656.11288,403.937854 L1656.11288,403.937854 L753.034704,524.050056 Z M1206.57895,-265.972629 C1240.37564,-246.140243 1273.00758,-224.089053 1304.24603,-199.846611 L1304.24603,-199.846611 L751.151238,522.926374 Z M-100.169731,176.061322 L739.456392,522.55521 L-138.894739,287.202557 C-128.493674,249.72278 -115.609555,212.610139 -100.169731,176.061322 L-100.169731,176.061322 Z M17.0470962,-30.6920804 L739.822369,522.406549 L-49.0804899,66.9738763 C-29.2480723,33.1833691 -7.19629819,0.543640012 17.0470962,-30.6920804 L17.0470962,-30.6920804 Z M984.442107,-356.891541 C1021.92213,-346.490606 1059.03464,-333.606508 1095.58376,-318.166707 L1095.58376,-318.166707 L749.089086,521.458136 Z M187.315873,-198.806811 L741.206027,521.078245 L98.2082061,-121.917902 C125.955721,-149.176032 155.670004,-174.874415 187.315873,-198.806811 L187.315873,-198.806811 Z M747.208548,-390 C786.396399,-389.724885 825.685126,-386.946688 864.854607,-381.564457 L864.854607,-381.564457 L747.245225,520.92757 Z M394.114819,-320.353046 L743.504292,520.029077 L288.012261,-268.833205 C322.08394,-288.188791 357.503271,-305.426312 394.114819,-320.353046 L394.114819,-320.353046 Z M625.630116,-380.812548 L745.370304,519.570828 L510.016429,-358.778598 C547.675561,-368.511123 586.258088,-375.909344 625.630116,-380.812548 L625.630116,-380.812548 Z" id="sunburst" fill="#233136" fill-rule="nonzero"></path>
    </g>
</svg>