<?xml version="1.0" encoding="UTF-8"?>
<svg width="242px" height="178px" viewBox="0 0 242 178" version="1.1" xmlns="http://www.w3.org/2000/svg" xmlns:xlink="http://www.w3.org/1999/xlink">
    <title>logo</title>
    <defs>
        <radialGradient cx="40.1616454%" cy="7.46952416%" fx="40.1616454%" fy="7.46952416%" r="195.86618%" gradientTransform="translate(0.401616,0.074695),scale(1.000000,0.583618),rotate(71.168636),scale(1.000000,0.749903),translate(-0.401616,-0.074695)" id="radialGradient-1">
            <stop stop-color="#F9DCCD" offset="0%"></stop>
            <stop stop-color="#EE9060" offset="25.6359538%"></stop>
            <stop stop-color="#A14F2D" offset="72.4820524%"></stop>
            <stop stop-color="#60240A" offset="100%"></stop>
        </radialGradient>
    </defs>
    <g id="logo" stroke="none" stroke-width="1" fill="none" fill-rule="evenodd">
        <g id="microphone" transform="translate(0.000000, 39.763291)" fill="url(#radialGradient-1)" fill-rule="nonzero">
            <path d="M34.5231028,127.793753 L34.5231028,118.004163 L35.9121648,118.003903 C36.6761498,118.003743 39.1466958,117.765743 41.4022658,117.475033 C43.6578458,117.184323 45.5330758,116.946163 45.5694558,116.946163 C45.6058558,116.946163 45.6356558,121.589273 45.6356558,127.264583 L45.6356558,137.583333 L40.0794058,137.583333 L34.5231028,137.583333 L34.5231028,127.793753 Z M30.0251858,117.024903 C23.1984278,115.853963 21.8133208,115.539023 20.3354618,114.821713 C18.3970898,113.880893 16.7467438,112.174973 15.7801278,110.113013 C15.0885888,108.637823 15.0738148,108.490653 14.9387478,101.732293 C14.8022808,94.903923 14.7960098,94.843043 14.0896178,93.487683 C13.3211698,92.013253 12.4660608,89.635653 12.0695848,87.871073 C11.7837028,86.598703 11.9249738,86.385613 13.7720228,85.303173 L14.9439358,84.616383 L14.9439358,82.127983 C14.9439358,80.442473 14.8466658,79.639583 14.6424698,79.639583 C14.4766638,79.639583 13.7497178,80.003403 13.0270378,80.448073 C11.2063708,81.568343 10.6587578,81.433843 10.2739528,79.771873 C9.73288576,77.435003 9.69444376,77.507623 12.4303948,75.698303 L14.9439358,74.036073 L14.9439358,71.678453 C14.9439358,70.132643 14.8431878,69.320833 14.6513438,69.320833 C14.3890568,69.320833 11.2353718,71.021653 9.72501876,71.977653 C8.93941076,72.474923 8.65077876,72.151943 8.21834976,70.291693 C7.93057276,69.053723 7.93266576,68.720263 8.23088976,68.294493 C8.67483376,67.660673 11.3906608,65.713153 13.4326138,64.564323 L14.9639958,63.702753 L14.9210758,61.347703 C14.8974758,60.052423 14.7936558,58.940433 14.6903778,58.876603 C14.4716918,58.741443 9.66188476,61.396593 8.38928876,62.354983 C7.12647276,63.306003 6.69695876,63.097793 6.26424776,61.324863 C5.91367776,59.888473 5.92332976,59.778503 6.45983876,59.096443 C7.27652276,58.058193 9.97112976,56.062733 12.5626888,54.577033 L14.8116468,53.287743 L14.9609598,51.381563 C15.0708828,49.978223 15.2689688,49.260723 15.7118628,48.661683 C16.0427378,48.214143 16.2598968,47.794433 16.1944418,47.728973 C15.9879638,47.522493 10.0846778,50.654733 7.73994076,52.214873 C5.58267076,53.650263 4.80969376,53.958423 4.52438276,53.496783 C4.45176276,53.379273 4.31139276,52.672873 4.21244976,51.926993 L4.03255076,50.570853 L5.44787376,49.074363 C7.04346976,47.387243 9.87186876,45.440943 13.7063238,43.391473 C16.5297508,41.882393 17.0201268,41.279633 16.6120838,39.819793 C16.4603688,39.277003 16.0787368,38.873143 15.4050568,38.542453 C14.4262608,38.061993 14.4104278,38.063203 12.9560288,38.729043 C10.9286748,39.657193 6.93529776,42.035483 4.96284476,43.489443 C4.04197076,44.168243 3.14765176,44.638643 2.93390876,44.556623 C2.72369176,44.475923 2.40993276,43.819023 2.23666776,43.096773 C1.93502976,41.839413 1.95369376,41.737353 2.67576476,40.695403 C3.89931276,38.929813 7.49891276,36.211163 11.3720638,34.127383 C12.5362308,33.501063 13.7566208,32.748703 14.0840428,32.455473 C15.3880818,31.287643 14.4286918,28.839583 12.6669798,28.839583 C10.9169908,28.839583 4.53781776,32.578493 1.27545776,35.516293 L0.703854764,36.031023 L0.349415764,34.485823 C0.141842764,33.580893 -0.00290323572,31.405773 4.41999267e-05,29.236463 L0.00518976428,25.532293 L1.12482476,22.639913 C2.55494276,18.945453 3.93515976,16.829173 6.74466176,14.023043 C10.2918278,10.480123 15.3015038,7.174116 21.4951428,4.288827 C26.3962738,2.00565 27.2012688,1.760764 29.1493618,1.960352 C34.1078408,2.468364 36.7435728,5.229005 37.9783258,11.207723 C38.5503858,13.977653 38.9667258,14.552083 40.4023258,14.552083 C41.7379858,14.552083 42.3106258,14.229983 42.7163558,13.250443 C42.9931058,12.582323 42.9532058,12.029803 42.4624458,9.734603 C41.4843258,5.160031 40.0642058,2.400456 37.8503358,0.772355 L36.8000988,5.68434189e-14 L37.9766958,0.0039 C39.6238958,0.0094 42.2235458,0.664703 43.8325958,1.480072 C46.9427258,3.056094 49.5704958,6.909922 50.5431458,11.321633 C51.2400858,14.482733 51.3146158,14.660693 52.1023958,15.044443 C53.0922158,15.526623 54.3653958,15.151073 54.8861258,14.223313 C55.2438158,13.586053 55.2356558,13.279163 54.8054258,11.188943 C53.8869758,6.726198 51.7674458,2.868385 49.2346958,1.0495 C48.5653358,0.5688 48.0473358,0.145838 48.0835858,0.109585 C48.3073258,-0.114149 51.0522458,0.656484 52.4244058,1.328264 C56.1160258,3.135604 59.0482558,7.942487 60.0419858,13.815963 C60.2556558,15.078873 60.8016658,15.610403 61.8853058,15.610403 C62.7539358,15.610403 63.5105358,15.044913 63.6553058,14.287493 C63.7863658,13.601813 63.3539758,11.444323 62.7003658,9.522623 C62.3543458,8.505283 62.1122058,7.672906 62.1622858,7.672906 C62.4852758,7.672906 64.9962858,12.099243 65.5394358,13.626033 C66.3270958,15.840163 67.1842058,19.285353 66.9945658,19.474993 C66.9201658,19.549393 65.9236458,19.434193 64.7801858,19.218943 C63.6367258,19.003673 61.7280658,18.743953 60.5387158,18.641793 C58.4512558,18.462483 58.3526258,18.479693 57.6944458,19.137863 C57.0231358,19.809183 56.8167358,20.877483 57.1769758,21.816263 C57.4426458,22.508583 58.5973458,22.943953 60.7167958,23.150933 C63.3298658,23.406113 66.3850458,24.196973 67.3145158,24.858823 C68.2149758,25.5 68.9188758,26.896023 68.9188758,28.040683 C68.9188758,28.816743 68.8627758,28.870463 68.1912758,28.736983 C66.6018958,28.421053 64.2010158,28.065913 62.5412258,27.901223 C59.9263158,27.641763 58.8647058,28.304433 58.8647058,30.196153 C58.8647058,31.576303 59.8022758,32.199373 62.1999658,32.412633 C66.9279058,32.833153 69.1812558,33.504543 70.1964958,34.795203 C70.7266558,35.469193 71.2246858,37.469873 70.9345258,37.760033 C70.8500258,37.844533 69.5583358,37.775033 68.0639858,37.605633 C66.5696458,37.436253 64.5889858,37.273983 63.6625258,37.245023 C62.1183958,37.196723 61.9254958,37.253023 61.3474158,37.925523 C60.5527558,38.849373 60.5411958,39.983003 61.3172158,40.885203 C61.8686258,41.526263 62.1548958,41.602473 64.8229458,41.818533 C68.4460058,42.111923 70.3332058,42.465703 71.2899758,43.030883 C72.2001258,43.568523 72.8876058,44.938953 72.8876058,46.215613 L72.8876058,47.169533 L71.4985458,46.999773 C70.7345558,46.906373 68.7227258,46.753123 67.0277958,46.659143 C63.9595458,46.489003 63.9431158,46.491263 63.2574858,47.176893 C61.9966458,48.437733 62.5489758,50.584183 64.2157758,50.900943 C64.5468958,50.963843 66.4134158,51.144293 68.3635958,51.301893 C73.3215458,51.702543 74.7954858,52.562903 74.8482258,55.087053 L74.8720258,56.223943 L73.6813958,56.197843 C66.1958858,56.033683 65.9941658,56.040173 65.3441358,56.466093 C64.1309358,57.261013 64.1480958,59.166883 65.3757358,59.971243 C65.8985958,60.313823 66.9966858,60.463393 70.0873058,60.612973 C74.5746558,60.830153 75.8016558,61.169423 76.4192958,62.363813 C77.0340758,63.552673 77.2301958,64.987693 76.8140458,65.252243 C76.6190758,65.376183 74.4555758,65.479113 72.0062658,65.480983 L67.5529758,65.483983 L66.9130358,66.226343 C66.0922458,67.178493 66.0955258,68.257823 66.9220358,69.149523 C67.5559458,69.833523 67.6517258,69.850693 71.0892258,69.896563 C77.2679858,69.979063 77.6570658,70.007573 78.0573658,70.407873 C78.7264158,71.076923 80.2961258,78.585343 80.2961258,81.116543 C80.2961258,87.511863 76.2742158,91.959613 67.1476958,95.657103 C58.9176258,98.991413 42.8201258,102.113853 32.1419568,102.447183 L29.6284148,102.525683 L29.5608148,79.447113 L29.4932148,56.368533 L30.2658028,56.523053 C30.8049978,56.630893 32.0643188,56.317783 34.4344428,55.486593 C42.6134958,52.618223 47.6959658,51.506043 54.2027658,51.160753 C58.0149658,50.958443 58.7169058,50.647683 59.0283958,49.024303 C59.1646558,48.314173 59.0595958,48.043203 58.3870058,47.370653 C57.6566658,46.640313 57.4251258,46.566303 55.8705458,46.566303 C51.8302358,46.566303 45.2437358,47.539643 40.3667158,48.857413 C38.3110958,49.412843 31.7284808,51.565993 29.9591408,52.261693 C29.5612358,52.418153 29.4959788,52.281693 29.4951298,51.290973 C29.4940298,50.128373 28.7991298,48.635863 27.9412748,47.954093 C26.5588818,46.855433 23.4414048,45.865323 22.0877858,46.095013 L21.4263278,46.207253 L22.1027008,46.493043 C23.1914348,46.953073 24.4524728,48.142423 25.0098048,49.234883 C25.5141828,50.223543 25.5273698,50.988193 25.5273698,79.245723 C25.5273698,111.760063 25.4591498,110.502713 27.3849138,113.482243 C28.2865508,114.877253 29.1474278,115.685133 30.9882528,116.863763 C31.5176738,117.202743 31.2878988,117.241103 30.0252858,117.024543 L30.0251858,117.024903 Z M46.5616458,98.136853 C48.5930658,97.589423 52.8951758,95.288783 54.4063358,93.941743 C57.2634758,91.394883 58.2408258,88.715993 57.9832258,84.137503 C57.7792458,80.511903 57.1099758,76.762483 56.5221458,75.952103 C55.5685258,74.637433 53.7872758,74.694183 52.8871758,76.067923 C52.4684058,76.707043 52.4666858,76.926193 52.8616758,79.320873 C53.7346458,84.613353 53.6510258,86.937343 52.5069158,89.179983 C51.5037158,91.146403 48.5710358,93.279493 44.7095558,94.851383 C42.3582358,95.808533 41.8053058,96.298933 42.0369158,97.221753 C42.1331158,97.605103 42.4761758,98.025103 42.7992458,98.155103 C43.6162958,98.483863 45.3042958,98.475673 46.5616458,98.136803 L46.5616458,98.136853 Z M60.7168558,94.808013 C64.9911458,92.783283 67.4827458,90.345033 68.3763658,87.312503 C69.1667258,84.630403 69.2356358,83.403403 68.8016158,79.740613 C68.1706958,74.416003 67.8907458,73.818753 66.0259158,73.818753 C65.0149058,73.818753 64.1563158,74.639123 64.1567958,75.604683 C64.1569958,76.004873 64.3354258,77.344323 64.5533158,78.581253 C65.1500358,81.968833 65.0791158,85.623363 64.3802158,87.501013 C63.5805558,89.649373 61.3053658,91.835253 58.2435358,93.396823 C55.6754358,94.706573 55.2857358,95.034133 55.5320158,95.675923 C55.8162058,96.416523 58.1436958,96.026913 60.7168558,94.808013 L60.7168558,94.808013 Z M67.6029058,93.677523 C70.9328258,92.260523 74.2419558,89.553663 75.4141358,87.287943 C76.6331758,84.931683 76.9492158,80.483733 76.2000758,76.226863 C75.7630358,73.743463 75.2972458,73.025003 74.1242858,73.025003 C72.4697558,73.025003 72.0810758,74.055883 72.6213158,77.011303 C74.1966058,85.628973 72.8845858,89.780063 67.6123358,92.859223 C65.9537358,93.827893 65.1661258,94.456253 65.6105358,94.456253 C65.6998358,94.456253 66.5964258,94.105823 67.6029058,93.677523 L67.6029058,93.677523 Z M39.2458758,74.617683 C46.8163858,72.208493 53.7891658,70.698793 59.4982658,70.232773 C61.2028758,70.093633 61.7015758,69.947663 62.2102358,69.439003 C63.4136558,68.235583 62.7869858,66.145273 61.0955158,65.720743 C60.3679658,65.538143 55.8287558,66.024953 51.9856058,66.697753 C45.0581058,67.910503 33.8176548,71.241103 33.0752898,72.300983 C32.2951658,73.414763 32.6896908,75.216473 33.8127948,75.668983 C34.7262868,76.037043 34.8780568,76.007673 39.2458758,74.617683 L39.2458758,74.617683 Z M38.7564358,64.442113 C45.3291458,62.325743 51.2839258,61.082613 56.6158158,60.713753 C57.9254958,60.623153 59.3090358,60.431033 59.6903458,60.286833 C61.3759158,59.649393 61.3296158,57.048443 59.6201458,56.340333 C57.9765458,55.659533 50.0695258,56.679883 43.2065058,58.458423 C38.7020058,59.625743 32.3929348,61.687153 31.4660938,62.294443 C30.1665608,63.145923 30.4441648,65.373363 31.9275538,65.997083 C32.6248048,66.290253 32.9662078,66.293533 33.8477968,66.015483 C34.4375188,65.829523 36.6464238,65.121483 38.7564758,64.442063 L38.7564358,64.442113 Z M31.2671218,46.154863 C38.3847358,43.280353 46.7531058,41.539583 53.4540858,41.539583 C55.3703558,41.539583 55.7525958,41.460183 56.3629358,40.935173 C57.3736458,40.065793 57.3522958,38.497093 56.3176358,37.607133 C55.5752058,36.968523 55.5398158,36.965003 51.5201558,37.130873 C45.6911258,37.371393 41.4623258,38.094273 35.7130698,39.832983 C32.1510478,40.910223 27.3279588,42.832613 26.9552348,43.323683 C26.1775978,44.348243 26.6161688,46.224633 27.7484848,46.717533 C28.8344038,47.190233 28.6175538,47.224913 31.2671018,46.154863 L31.2671218,46.154863 Z M31.0973178,35.765733 C37.8879858,33.206263 42.0859058,32.359943 49.2910058,32.097793 C53.2462458,31.953883 53.9604858,31.861853 54.5165258,31.424473 C55.4184358,30.715033 55.4157358,29.070663 54.5115258,28.166103 C53.9021858,27.556753 53.6857758,27.516683 51.0057958,27.5168922 C42.9721458,27.517413 36.1870818,28.859403 28.0411648,32.058633 C25.1099438,33.209843 24.4692898,33.755203 24.4692898,35.099233 C24.4692898,36.145643 25.5056038,37.306253 26.4399508,37.306253 C26.7537128,37.306253 28.8496858,36.613013 31.0976708,35.765733 L31.0973178,35.765733 Z M27.7815938,26.469483 C34.3467398,23.737143 38.9119958,22.803613 46.8262258,22.575113 C51.6683658,22.435313 52.1684658,22.376323 52.7132058,21.880673 C53.0969058,21.531553 53.3085158,21.033913 53.3085158,20.480723 C53.3085158,18.364563 52.5452458,17.990933 48.2284258,17.9939152 C41.9634358,17.997933 36.0456558,18.807023 31.4803948,20.282763 C27.6132368,21.532833 23.5587618,23.284373 22.9475818,23.968953 C22.2042408,24.801563 22.1859708,25.910973 22.9006418,26.819523 C23.6752618,27.804293 24.7615488,27.726393 27.7815958,26.469483 L27.7815938,26.469483 Z M34.5213908,113.788203 C33.4673628,113.467583 32.3131438,112.811153 31.7931848,112.236603 C31.2179088,111.600933 30.6189188,111.730663 39.3708858,110.595433 C42.6920058,110.164643 45.9060258,109.678413 46.5131458,109.514933 C49.8814158,108.607953 51.6763158,106.649013 52.3402858,103.155233 L52.6333958,101.612893 L54.0954358,101.323953 C55.2760758,101.090633 59.8773658,99.921463 62.1059158,99.288533 C62.5176858,99.171593 62.5689358,99.378633 62.5689358,101.159243 C62.5689358,106.065173 60.9296658,109.147223 57.3946958,110.887473 C55.8356258,111.655003 55.0902058,111.790843 46.5111058,112.870783 C37.2146748,114.041033 35.7268038,114.154873 34.5213908,113.788203 L34.5213908,113.788203 Z" id="path44"></path>
        </g>
        <path d="M91.5049021,63.0515156 L91.5049021,21.1535664 L80.6098826,21.1535664 L80.6098826,63.0515156 L91.5049021,63.0515156 Z M105.712422,63.0515156 L105.712624,38.9390974 C105.714646,37.4535876 105.731831,36.4722615 105.764179,35.9951191 C105.798685,35.4861673 105.979837,35.0548522 106.307636,34.7011738 C106.635436,34.3474954 107.032246,34.1706562 107.498066,34.1706562 C108.239928,34.1706562 108.692809,34.507082 108.856709,35.1799336 C109.020609,35.8527851 109.102558,37.8713398 109.102558,41.2355976 L109.102558,63.0515156 L119.24709,63.0515156 L119.247607,40.3176625 C119.255888,37.5722625 119.363545,35.8683125 119.570576,35.2058125 C119.786234,34.5157083 120.264993,34.1706562 121.006855,34.1706562 C121.731465,34.1706562 122.192972,34.5200215 122.391377,35.2187519 C122.589782,35.9174824 122.688984,37.733319 122.688984,40.6662617 L122.688984,63.0515156 L132.833515,63.0515156 L132.833515,38.647707 C132.833515,35.8355325 132.669616,33.8040384 132.341816,32.5532246 C132.014017,31.3024108 131.267842,30.2456888 130.103291,29.3830586 C128.93874,28.5204284 127.467956,28.0891133 125.690937,28.0891133 C124.345234,28.0891133 123.120299,28.4125996 122.016133,29.0595722 C120.911966,29.7065449 119.919941,30.6770039 119.040058,31.9709492 C117.435566,29.3830586 115.235859,28.0891133 112.440937,28.0891133 C111.008971,28.0891133 109.732278,28.4125996 108.610859,29.0595722 C107.48944,29.7065449 106.523294,30.6770039 105.712422,31.9709492 L105.712422,31.9709492 L105.893574,28.710207 L95.5678904,28.710207 L95.5678904,63.0515156 L105.712422,63.0515156 Z M146.885761,67.9426289 L146.885761,60.0754414 C147.80015,61.2658711 148.809427,62.1630065 149.913594,62.7668476 C151.01776,63.3706888 152.216816,63.6726094 153.510761,63.6726094 C155.132506,63.6726094 156.517028,63.2801126 157.664326,62.4951191 C158.811624,61.7101256 159.570739,60.6577168 159.94167,59.3378926 C160.312601,58.0180683 160.498066,55.7967955 160.498066,52.6740742 L160.498066,52.6740742 L160.498066,38.2077656 C160.498066,35.4818541 160.351419,33.5495625 160.058125,32.4108906 C159.764831,31.2722187 159.027282,30.2672545 157.845478,29.395998 C156.663675,28.5247415 155.261901,28.0891133 153.640156,28.0891133 C152.311706,28.0891133 151.086771,28.3910338 149.965351,28.994875 C148.843932,29.5987161 147.817402,30.5131041 146.885761,31.738039 L146.885761,31.738039 L147.066914,28.710207 L136.430683,28.710207 L136.430683,67.9426289 L146.885761,67.9426289 Z M148.542011,57.5910664 C147.851907,57.5910664 147.40334,57.3322773 147.196308,56.8146992 C146.989277,56.2971211 146.885761,55.0031758 146.885761,52.9328633 L146.885761,52.9328633 L146.885761,38.6994648 C146.885761,36.7154153 146.984964,35.4646015 147.183369,34.9470234 C147.381774,34.4294453 147.826028,34.1706562 148.516133,34.1706562 C149.223489,34.1706562 149.654804,34.3949401 149.810078,34.8435078 C149.965351,35.2920755 150.042988,36.5773945 150.042988,38.6994648 L150.042137,53.7402583 C150.033063,55.3864791 149.951397,56.4328585 149.797138,56.8793965 C149.633239,57.3538431 149.214863,57.5910664 148.542011,57.5910664 Z M170.797871,63.6726094 C172.195332,63.6726094 173.398701,63.3663756 174.407978,62.7539082 C175.417256,62.1414407 176.241067,61.2227396 176.879414,59.9978047 L176.879414,59.9978047 L176.879414,63.0515156 L187.049824,63.0515156 L187.049325,45.3054656 C187.038679,39.9146684 186.857693,36.336773 186.506367,34.5717793 C186.144062,32.7516295 185.065775,31.2161478 183.271504,29.965334 C181.477233,28.7145202 178.811706,28.0891133 175.274922,28.0891133 C172.324726,28.0891133 169.926614,28.6411966 168.080586,29.7453633 C166.234557,30.8495299 165.005309,32.1219095 164.392842,33.5625019 C163.780374,35.0030944 163.47414,37.0518411 163.47414,39.7087422 L163.47414,39.7087422 L163.47414,42.0119648 L173.282246,42.0119648 L173.283045,38.102373 C173.292097,36.3702168 173.378094,35.2882416 173.541035,34.8564472 C173.713561,34.3992532 174.153502,34.1706562 174.860859,34.1706562 C175.481953,34.1706562 175.926207,34.4423847 176.193623,34.9858418 C176.461038,35.5292988 176.594746,36.6981627 176.594746,38.4924336 C176.594746,39.9243997 176.473978,40.8732929 176.232441,41.3391133 C175.990905,41.8049336 174.153502,42.7106953 170.720234,44.0563984 C167.51125,45.2985859 165.501321,46.3855 164.690449,47.3171406 C163.879577,48.2487812 163.47414,49.9999205 163.47414,52.5705586 L163.47414,52.5705586 L163.47414,55.3913594 C163.47414,58.8591328 164.237568,61.1062845 165.764424,62.1328144 C167.291279,63.1593444 168.969095,63.6726094 170.797871,63.6726094 Z M175.016133,57.5910664 C174.326028,57.5910664 173.864521,57.3322773 173.631611,56.8146992 C173.398701,56.2971211 173.282246,55.1498229 173.282246,53.3728047 C173.282246,51.8200703 173.415954,50.6296406 173.683369,49.8015156 C173.950784,48.9733906 174.921243,47.9468607 176.594746,46.7219258 L176.594746,46.7219258 L176.594746,53.7868672 C176.594746,55.5121276 176.495543,56.5774759 176.297138,56.9829121 C176.098734,57.3883483 175.671732,57.5910664 175.016133,57.5910664 Z M202.085469,63.6726094 C204.397317,63.6726094 206.338235,63.3059915 207.908222,62.5727558 C209.478209,61.8395202 210.750589,60.7526061 211.725361,59.3120136 C212.700133,57.8714212 213.278095,56.465334 213.459248,55.0937519 C213.6404,53.7221699 213.739603,51.6647969 213.756855,48.9216328 L213.756855,48.9216328 L204.440449,48.9216328 L204.440449,53.0105 C204.440449,54.7875182 204.315368,55.9952005 204.065205,56.6335469 C203.815042,57.2718932 203.336282,57.5910664 202.628926,57.5910664 C202.025084,57.5910664 201.56789,57.2848327 201.257344,56.6723652 C200.946797,56.0598978 200.791523,55.1411966 200.791523,53.9162617 L200.791523,53.9162617 L200.791523,37.7160664 C200.791523,36.2150898 200.895039,35.248944 201.10207,34.8176289 C201.309101,34.3863138 201.714538,34.1706562 202.318379,34.1706562 C202.92222,34.1706562 203.336282,34.4165058 203.560566,34.9082051 C203.78485,35.3999043 203.896992,36.335858 203.896992,37.7160664 L203.896992,37.7160664 L203.896992,41.675539 L213.756855,41.675539 C213.756855,38.4493021 213.437682,35.9563008 212.799336,34.1965351 C212.160989,32.4367695 210.87567,30.9789245 208.943379,29.823 C207.011087,28.6670755 204.681985,28.0891133 201.956074,28.0891133 C199.21291,28.0891133 196.883808,28.6713886 194.968769,29.8359394 C193.05373,31.0004902 191.802916,32.3246276 191.216328,33.8083515 C190.629739,35.2920755 190.336445,37.4917825 190.336445,40.4074726 L190.336445,40.4074726 L190.336445,50.1638203 C190.336445,53.5108255 190.694437,56.094403 191.41042,57.9145527 C192.126403,59.7347024 193.347025,61.149416 195.072285,62.1586933 C196.797545,63.1679707 199.135273,63.6726094 202.085469,63.6726094 Z M231.14748,63.0515156 L231.14748,57.5134297 C229.439472,57.5134297 228.469013,57.3840351 228.236103,57.1252461 C228.003193,56.866457 227.886738,55.6070169 227.886738,53.3469258 L227.886738,53.3469258 L227.886738,34.9729023 L230.707539,34.9729023 L230.707539,29.538332 L227.886738,29.538332 L227.886738,24.1296406 L217.405781,24.1296406 L217.405781,29.538332 L215.154316,29.538332 L215.154316,34.9729023 L217.405781,34.9729023 L217.405781,52.4152851 C217.405781,55.8313008 217.50067,58.0008157 217.690449,58.9238301 C217.880228,59.8468444 218.363301,60.6663431 219.139668,61.3823261 C219.916035,62.0983092 220.81317,62.5555032 221.831074,62.7539082 C222.848978,62.9523131 224.548359,63.0515156 226.929219,63.0515156 L226.929219,63.0515156 L231.14748,63.0515156 Z M94.3515818,112.051516 C96.956725,112.051516 98.9062693,111.909182 100.200215,111.624514 C101.49416,111.339846 102.581074,110.83952 103.460957,110.123537 C104.34084,109.407554 104.95762,108.415529 105.311299,107.147463 C105.664977,105.879396 105.841816,103.364829 105.841816,99.6037617 L105.841816,99.6037617 L105.841319,84.4949001 C105.832705,80.7669886 105.712102,78.2509484 105.479511,76.9467793 C105.237975,75.5924498 104.634134,74.3632018 103.667988,73.2590351 C102.701842,72.1548685 101.291442,71.3612487 99.4367869,70.8781758 C97.5821319,70.3951028 94.0237823,70.1535664 88.7617381,70.1535664 L80.6098826,70.1535664 L80.6098826,112.051516 L94.3515818,112.051516 Z M91.5049021,104.883059 L91.5049021,77.3220234 C92.6953318,77.3220234 93.5062042,77.4471048 93.9375193,77.6972676 C94.3688344,77.9474303 94.6448761,78.3399271 94.7656443,78.8747578 C94.8864125,79.4095885 94.9467967,80.6258971 94.9467967,82.5236836 L94.9467967,98.8015156 C94.9467967,101.596437 94.7656443,103.308758 94.4033396,103.938478 C94.0410349,104.568199 93.0748891,104.883059 91.5049021,104.883059 L91.5049021,104.883059 Z M116.736836,112.672609 C118.117044,112.672609 119.337666,112.383628 120.398701,111.805666 C121.459736,111.227704 122.352558,110.36076 123.077168,109.204836 L123.077168,109.204836 L122.896015,112.051516 L133.532246,112.051516 L133.532246,77.710207 L123.077168,77.710207 L123.077168,100.82007 C123.077168,103.632245 123.003844,105.297121 122.857197,105.814699 C122.71055,106.332277 122.249043,106.591066 121.472676,106.591066 C120.748066,106.591066 120.303812,106.340904 120.139912,105.840578 C119.976012,105.340253 119.894062,103.753013 119.894062,101.078859 L119.894062,77.710207 L109.438984,77.710207 L109.438984,100.871828 C109.438984,103.822023 109.499368,105.793133 109.620136,106.785158 C109.740905,107.777183 110.047138,108.730389 110.538838,109.644777 C111.030537,110.559165 111.793965,111.292401 112.829121,111.844484 C113.864277,112.396568 115.166849,112.672609 116.736836,112.672609 Z M151.569844,112.051516 L151.569844,106.51343 C149.861836,106.51343 148.891377,106.384035 148.658467,106.125246 C148.425556,105.866457 148.309101,104.607017 148.309101,102.346926 L148.309101,83.9729023 L151.129902,83.9729023 L151.129902,78.538332 L148.309101,78.538332 L148.309101,73.1296406 L137.828144,73.1296406 L137.828144,78.538332 L135.576679,78.538332 L135.576679,83.9729023 L137.828144,83.9729023 L137.828565,101.803909 C137.835584,104.996343 137.930333,107.036316 138.112812,107.92383 C138.302591,108.846844 138.785664,109.666343 139.562031,110.382326 C140.338398,111.098309 141.235534,111.555503 142.253437,111.753908 C143.271341,111.952313 144.970722,112.051516 147.351582,112.051516 L147.351582,112.051516 L151.569844,112.051516 Z M161.196797,116.864992 C164.095234,116.864992 166.204365,116.645021 167.524189,116.20508 C168.844013,115.765139 169.874857,115.079348 170.616719,114.147707 C171.358581,113.216066 171.889098,112.034263 172.208271,110.602297 C172.527444,109.170331 172.919941,106.487551 173.385761,102.553957 L173.385761,102.553957 L176.387715,77.710207 L166.890156,77.710207 L165.233906,100.871828 L161.81789,77.710207 L152.320332,77.710207 L158.03957,106.435793 C158.470885,108.557863 158.686543,109.756919 158.686543,110.032961 C158.686543,110.602297 158.453633,110.968915 157.987812,111.132814 C157.521992,111.296714 156.478209,111.378664 154.856465,111.378664 L154.856465,111.378664 L154.856465,116.864992 L161.196797,116.864992 Z" id="ImpactDuty" fill="#FFFFFF" fill-rule="nonzero" transform="translate(155.878681, 69.009279) rotate(-14.000000) translate(-155.878681, -69.009279) "></path>
    </g>
</svg>