<?xml version="1.0" encoding="UTF-8"?>
<svg width="490px" height="110px" viewBox="0 0 490 110" version="1.1" xmlns="http://www.w3.org/2000/svg" xmlns:xlink="http://www.w3.org/1999/xlink">
    <title>YouTube_Logo_2017</title>
    <g id="Page-1" stroke="none" stroke-width="1" fill="none" fill-rule="evenodd">
        <g id="YouTube_Logo_2017" fill-rule="nonzero">
            <g id="Group">
                <path d="M153.3,17.5 C151.5,10.8 146.2,5.5 139.5,3.7 C127.4,0.4 78.7,0.4 78.7,0.4 C78.7,0.4 30,0.5 17.9,3.8 C11.2,5.6 5.9,10.9 4.1,17.6 C0.9,29.7 0.9,55 0.9,55 C0.9,55 0.9,80.3 4.2,92.5 C6,99.2 11.3,104.5 18,106.3 C30.1,109.6 78.8,109.6 78.8,109.6 C78.8,109.6 127.5,109.6 139.6,106.3 C146.3,104.5 151.6,99.2 153.4,92.5 C156.7,80.4 156.7,55 156.7,55 C156.7,55 156.6,29.7 153.3,17.5 Z" id="Path" fill="#FF0000"></path>
                <polygon id="Path" fill="#FFFFFF" points="63.2 78.4 103.6 55 63.2 31.6"></polygon>
            </g>
            <g id="Group" transform="translate(172.000000, 4.000000)" fill="#FFFFFF">
                <path d="M54.9,95.7 C51.8,93.6 49.6,90.4 48.3,86 C47,81.6 46.4,75.8 46.4,68.5 L46.4,58.6 C46.4,51.3 47.1,45.3 48.6,40.9 C50.1,36.4 52.4,33.2 55.6,31.2 C58.8,29.2 62.9,28.1 68,28.1 C73,28.1 77.1,29.1 80.1,31.2 C83.1,33.3 85.4,36.5 86.8,40.9 C88.2,45.3 88.9,51.2 88.9,58.5 L88.9,68.4 C88.9,75.7 88.2,81.5 86.8,85.9 C85.4,90.3 83.2,93.5 80.1,95.6 C77,97.6 72.8,98.7 67.6,98.7 C62.2,98.8 58,97.7 54.9,95.7 Z M72.2,85 C73.1,82.8 73.5,79.1 73.5,74.1 L73.5,52.8 C73.5,47.9 73.1,44.3 72.2,42.1 C71.3,39.8 69.8,38.7 67.7,38.7 C65.6,38.7 64.2,39.8 63.3,42.1 C62.4,44.4 62,47.9 62,52.8 L62,74.1 C62,79.1 62.4,82.8 63.2,85 C64,87.2 65.5,88.3 67.7,88.3 C69.8,88.3 71.3,87.2 72.2,85 Z" id="Shape"></path>
                <path d="M291.4,68.7 L291.4,72.2 C291.4,76.6 291.5,79.9 291.8,82.1 C292.1,84.3 292.6,85.9 293.4,86.9 C294.2,87.9 295.5,88.4 297.2,88.4 C299.5,88.4 301.1,87.5 301.9,85.7 C302.8,83.9 303.2,80.9 303.3,76.8 L316.6,77.6 C316.7,78.2 316.7,79 316.7,80 C316.7,86.3 315,91 311.5,94.1 C308,97.2 303.2,98.8 296.9,98.8 C289.3,98.8 284,96.4 281,91.7 C278,87 276.4,79.6 276.4,69.7 L276.4,57.6 C276.4,47.4 278,39.9 281.1,35.2 C284.3,30.5 289.7,28.1 297.3,28.1 C302.6,28.1 306.6,29.1 309.4,31 C312.2,32.9 314.2,35.9 315.4,40 C316.6,44.1 317.1,49.7 317.1,56.9 L317.1,68.6 L291.4,68.6 L291.4,68.7 Z M293.4,39.9 C292.6,40.9 292.1,42.4 291.8,44.6 C291.5,46.8 291.4,50.1 291.4,54.6 L291.4,59.5 L302.6,59.5 L302.6,54.6 C302.6,50.2 302.5,46.9 302.2,44.6 C301.9,42.3 301.4,40.7 300.6,39.8 C299.8,38.9 298.6,38.4 297,38.4 C295.3,38.5 294.1,39 293.4,39.9 Z" id="Shape"></path>
                <path d="M17.5,67.4 L0,4.2 L15.3,4.2 L21.4,32.8 C23,39.9 24.1,45.9 24.9,50.8 L25.3,50.8 C25.8,47.2 27,41.3 28.8,32.9 L35.1,4.2 L50.4,4.2 L32.7,67.3 L32.7,97.6 L17.6,97.6 L17.6,67.4 L17.5,67.4 Z" id="Path"></path>
                <path d="M138.5,29.4 L138.5,97.7 L126.5,97.7 L125.2,89.3 L124.9,89.3 C121.6,95.6 116.7,98.8 110.2,98.8 C105.7,98.8 102.3,97.3 100.2,94.3 C98,91.3 97,86.7 97,80.4 L97,29.4 L112.4,29.4 L112.4,79.5 C112.4,82.5 112.7,84.7 113.4,86 C114.1,87.3 115.2,87.9 116.7,87.9 C118,87.9 119.3,87.5 120.5,86.7 C121.7,85.9 122.6,84.8 123.2,83.6 L123.2,29.4 L138.5,29.4 Z" id="Path"></path>
                <path d="M217.4,29.4 L217.4,97.7 L205.4,97.7 L204.1,89.3 L203.8,89.3 C200.5,95.6 195.6,98.8 189.1,98.8 C184.6,98.8 181.2,97.3 179.1,94.3 C176.9,91.3 175.9,86.7 175.9,80.4 L175.9,29.4 L191.3,29.4 L191.3,79.5 C191.3,82.5 191.6,84.7 192.3,86 C193,87.3 194.1,87.9 195.6,87.9 C196.9,87.9 198.2,87.5 199.4,86.7 C200.6,85.9 201.5,84.8 202.1,83.6 L202.1,29.4 L217.4,29.4 Z" id="Path"></path>
                <polygon id="Path" points="180.3 16.6 165 16.6 165 97.7 150 97.7 150 16.6 134.7 16.6 134.7 4.2 180.2 4.2 180.2 16.6"></polygon>
                <path d="M268.2,40.3 C267.3,36 265.8,32.9 263.7,30.9 C261.6,29 258.8,28 255.1,28 C252.3,28 249.6,28.8 247.2,30.4 C244.7,32 242.9,34.1 241.5,36.7 L241.4,36.7 L241.4,0.7 L226.6,0.7 L226.6,97.6 L239.3,97.6 L240.9,91.1 L241.2,91.1 C242.4,93.4 244.2,95.2 246.5,96.6 C248.9,97.9 251.5,98.6 254.4,98.6 C259.6,98.6 263.4,96.2 265.9,91.4 C268.3,86.6 269.6,79.1 269.6,69 L269.6,58.2 C269.6,50.6 269.1,44.6 268.2,40.3 Z M254.1,68.2 C254.1,73.2 253.9,77.1 253.5,79.9 C253.1,82.7 252.4,84.7 251.4,85.9 C250.4,87.1 249.1,87.7 247.5,87.7 C246.2,87.7 245.1,87.4 244,86.8 C242.9,86.2 242.1,85.3 241.4,84.1 L241.4,45.3 C241.9,43.4 242.8,41.9 244.1,40.7 C245.4,39.5 246.7,38.9 248.2,38.9 C249.8,38.9 251,39.5 251.8,40.7 C252.7,41.9 253.2,44 253.6,46.9 C253.9,49.8 254.1,53.9 254.1,59.3 L254.1,68.2 Z" id="Shape"></path>
            </g>
        </g>
    </g>
</svg>